<svg xmlns="http://www.w3.org/2000/svg" width="231.467" height="239.293" viewBox="0 0 217 224.337">
  <defs>
    <clipPath id="b">
      <path d="M286.276 302.269c-4.967-5.429-7.383-10.243.863-8.861 8.627 1.446 14.462 1.5 23.2-.67 5.57-1.384 11.485-2.382 16.887-.316 5.341 2.042 9.686 7.152 11.283 13.269-4.951-2.454-10.349 1.454-15.291 3.931-4.153 2.083-8.703 3.09-13.272 3.09-8.687 0-17.444-3.639-23.67-10.443"/>
    </clipPath>
    <clipPath id="a">
      <path d="M0 500h500V0H0z"/>
    </clipPath>
  </defs>
  <path fill="#f1d5a9" d="M32.705 128.017c6.425 0 11.633-6.096 11.633-13.608 0-7.521-5.208-13.618-11.633-13.618-6.424 0-8.133 6.097-8.133 13.618 0 7.512 1.709 13.608 8.133 13.608zM184.371 128.017c6.425 0 9.883-6.096 9.883-13.608 0-7.521-3.458-13.618-9.883-13.618-6.424 0-11.632 6.097-11.632 13.618 0 7.512 5.208 13.608 11.632 13.608z"/>
  <path fill="#f1d5a9" d="M109.243 202.491c42.596 0 77.28-42.557 77.28-81.532 0-38.976-24.818-89.934-85.873-85.764-57.039 3.896-68.372 46.788-68.372 85.764 0 38.975 34.368 81.532 76.965 81.532z"/>
  <path fill="#f6ac2c" fill-opacity=".5" d="M156.794 157.254c.241 0 .435-.227.435-.5 0-.284-.194-.51-.435-.51-.234 0-.428.226-.428.51 0 .273.194.5.428.5zm0 0M61.146 157.254c.234 0 .427-.227.427-.5 0-.284-.193-.51-.427-.51-.242 0-.435.226-.435.51 0 .273.193.5.435.5zm0 0"/>
  <ellipse cx="151.906" cy="153.893" fill="#faa" rx="19.938" ry="9.21"/>
  <ellipse cx="68.534" cy="153.893" fill="#faa" rx="19.938" ry="9.21"/>
  <g stroke="#333" stroke-width="1.5" transform="matrix(1.03993 0 0 1.07997 -17.292 -45.23)">
    <ellipse cx="66.939" cy="142.427" fill="#fff" rx="25.391" ry="24.621" transform="matrix(.89131 0 0 .93324 22.651 27.42)"/>
    <ellipse cx="66.939" cy="142.427" fill="#333" rx="25.391" ry="24.621" transform="matrix(.71741 0 0 .75116 34.292 53.353)"/>
  </g>
  <g stroke="#333" stroke-width="1.5" transform="matrix(1.03993 0 0 1.07997 67.353 -45.23)">
    <ellipse cx="66.939" cy="142.427" fill="#fff" rx="25.391" ry="24.621" transform="matrix(.89131 0 0 .93324 22.651 27.42)"/>
    <ellipse cx="66.939" cy="142.427" fill="#333" rx="25.391" ry="24.621" transform="matrix(.71741 0 0 .75116 34.292 53.353)"/>
  </g>
  <path fill="none" stroke="#333" stroke-width="1.566" d="M87.761 177.373c13.852 5.217 27.703 5.217 41.555 0l-.717-.435"/>
  <path fill="#8b654f" d="M129.588 194.836c-9.988 2.868-10.078 1.875-12.812-3.199-2.44-4.53-3.357-5.322-8.238-5.322-4.88 0-5.795.793-8.237 5.322-2.452 4.552-2.42 6.183-12.812 3.199-5.565-1.598-7.944-5.503-10.053-8.187-2.268-4.386-2.577-11.59 5.619-12.33 8.847-.8 19.382.783 25.483.783 6.102 0 16.637-1.583 25.484-.784 8.195.742 7.886 7.945 5.618 12.331-2.108 2.684-4.99 5.238-10.052 8.187m51.471-56.99c-5.275 15.872-17.36 39.79-33.639 42.038-1.436-12.02-10.364-14.148-19.585-16.101-9.923-2.102-15.912-2.966-19.297-2.814-3.383-.152-9.374.712-19.296 2.814-9.22 1.953-18.149 4.081-19.585 16.1-12.796 1.07-31.013-33.281-34.962-49.791-2.86 3.89 2.35 8.435-.51 12.326 4.398 15.993 7.162 27.503 15.64 39.114 6.889 11.044 24.545 34.13 58.713 34.13 34.169 0 52.122-21.938 59.428-34.13 8.646-12.152 15.63-39.115 18.958-54.195"/>
  <g fill="#8b654f" clip-path="url(#a)" transform="matrix(-2.77437 0 0 -3.24786 963.044 1008.256)">
    <path d="M282.643 281.186a57.78 57.78 0 0 0 7.89 14.978c-.726 1.357-2.32 1.874-3.872 1.692-5.263-6.266-7.273-14.723-8.07-20.695-.186-3.524 1.934-7.465 2.658-10.684 1.428 4.66-.253 10.034 1.394 14.709M333.13 281.03a57.78 57.78 0 0 1-6.115 15.787c.877 1.264 2.52 1.594 4.041 1.235 4.507-6.83 5.53-15.462 5.634-21.486-.22-3.522-1.164-8.03-2.254-11.145-.882 4.793-.209 10.776-1.307 15.61"/>
  </g>
  <g fill="#725341">
    <g clip-path="url(#b)" transform="matrix(-2.77437 0 0 -3.24786 963.044 1015.756)">
      <path d="M286.276 302.269c-4.967-5.429-7.383-10.243.863-8.861 8.627 1.446 14.462 1.5 23.2-.67 5.57-1.384 11.485-2.382 16.887-.316 5.341 2.042 9.686 7.152 11.283 13.269-4.951-2.454-10.349 1.454-15.291 3.931-4.153 2.083-8.703 3.09-13.272 3.09-8.687 0-17.444-3.639-23.67-10.443"/>
    </g>
  </g>
  <g fill="#f55">
    <path fill="#305562" d="M180.343 127.94c-1.333 11.548-6.335 21.316-14.53 26.528-8.629 5.49-14.382 4.763-21.061 3.59-7.517-1.322-14.93-6.866-18.796-16.541-3.866-9.675-3.466-20.132-1.733-25.905 1.733-5.774 8.131-12.64 16.796-15.45 8.664-2.808 22.218-1.567 28.926 2.966 5.944 4.015 11.73 13.264 10.398 24.812m-87.409 13.577c-3.865 9.675-11.279 15.22-18.795 16.54-6.68 1.174-12.433 1.9-21.062-3.589-8.195-5.212-13.197-14.98-14.53-26.528-1.332-11.548 4.455-20.797 10.398-24.812 6.708-4.533 20.262-5.774 28.926-2.966 8.665 2.81 15.063 9.676 16.796 15.45 1.734 5.773 2.133 16.23-1.733 25.905m78.096-42.429c-8.391-3.22-16.504-4.982-28.473-2.405-11.969 2.577-17.928 10.327-19.992 10.489-2.063.16-7.535-2.86-13.078-2.86-5.544 0-11.057 3.02-13.12 2.86-2.064-.162-8.044-7.912-20.013-10.489-11.97-2.577-20.05-.816-28.442 2.405-8.392 3.222-12.758 7.399-20.462 7.399v10.147s4.677.16 5.228 3.382c.55 3.22 2.338 17.716 8.53 26.735 6.19 9.02 12.89 15.035 24.626 15.622 12.863.645 21.545-5.633 26.242-11.918 6.621-8.858 9.381-22.547 10.07-28.99 0 0-2.865-1.771-1.764-5.476.87-2.931 3.561-3.543 9.105-3.543 5.543 0 8.194.612 9.065 3.543 1.1 3.705-1.804 5.476-1.804 5.476.688 6.443 3.45 20.132 10.071 28.99 4.698 6.285 13.385 12.563 26.248 11.918 11.735-.587 18.446-6.603 24.636-15.622 6.191-9.019 8-23.514 8.551-26.735.55-3.222 5.27-3.382 5.27-3.382v-10.147c-7.76 0-12.102-4.177-20.494-7.399"/>
  </g>
  <g fill="#b9c2d5">
    <path d="M37.518 139.65c1.013 2.524 2.225 4.968 3.69 7.102 6.19 9.019 12.892 15.033 24.626 15.62 12.864.646 21.545-5.632 26.243-11.918 2.368-3.168 4.234-6.953 5.696-10.805h-4.15a39.053 39.053 0 0 1-.689 1.868c-3.866 9.674-11.28 15.219-18.796 16.54-6.68 1.174-12.432 1.9-21.06-3.59-5.228-3.324-9.15-8.507-11.655-14.818zm83.605 0c1.462 3.85 3.328 7.636 5.696 10.804 4.698 6.286 13.384 12.564 26.247 11.919 11.736-.588 18.446-6.602 24.637-15.621 1.464-2.134 2.677-4.578 3.693-7.103h-3.93c-2.505 6.311-6.426 11.494-11.654 14.819-8.628 5.489-14.381 4.763-21.06 3.589-7.517-1.321-14.93-6.866-18.796-16.54a39.062 39.062 0 0 1-.69-1.868z"/>
  </g>
</svg>
